<svg xmlns="http://www.w3.org/2000/svg" viewBox="0 0 64 64">
  <rect width="64" height="64" rx="14" fill="#0f5132"/>
  <!-- carta de atrás (negra, pica) -->
  <g transform="rotate(-14 34 34)">
    <rect x="26" y="14" width="26" height="36" rx="4" fill="#f8fafc" stroke="#1f2937" stroke-width="1.5"/>
    <path d="M39 22 C33 30 30 32 30 37 a5 5 0 0 0 9 2 l-2 5 h6 l-2 -5 a5 5 0 0 0 9 -2 C48 32 45 30 39 22 Z" fill="#1f2937"/>
  </g>
  <!-- carta de adelante (roja, corazón) -->
  <g transform="rotate(10 30 36)">
    <rect x="14" y="20" width="26" height="36" rx="4" fill="#f8fafc" stroke="#334155" stroke-width="1.5"/>
    <path d="M27 34 c-3 -5 -11 -3 -11 3 c0 5 7 9 11 13 c4 -4 11 -8 11 -13 c0 -6 -8 -8 -11 -3 Z" fill="#e11d48"/>
  </g>
</svg>
